Coordinates
version=1
nRows=18
nColumns=22
inDegrees=yes

Units are S.I. units (second, meters, Newtons, ...)
If the header above contains a line with 'inDegrees', this indicates whether rotational values are in degrees (yes) or radians (no).

endheader
time	pelvis_tilt	pelvis_list	pelvis_rotation	pelvis_tx	pelvis_ty	pelvis_tz	hip_flexion_r	hip_adduction_r	hip_rotation_r	knee_angle_r	ankle_angle_r	subtalar_angle_r	hip_flexion_l	hip_adduction_l	hip_rotation_l	knee_angle_l	ankle_angle_l	subtalar_angle_l	lumbar_extension	lumbar_bending	lumbar_rotation
      5.95000000	     -4.18979523	      0.59975262	    301.03782065	     -0.79724421	      0.96878722	      0.57617280	     29.40726228	      2.30159647	     11.59143097	    -15.45579625	      0.02673171	     21.19616432	    -17.04992673	      0.62319955	     11.06830571	    -16.59606708	      8.40342008	     -4.04993767	     -1.65612977	     -2.32673935	     -8.64229409
      5.96000000	     -4.49888083	      0.56093945	    301.58717625	     -0.79289742	      0.96935676	      0.58738517	     29.65743634	      2.79023169	     11.84248336	    -16.92951885	     -0.58674839	     20.60412779	    -16.76041507	      0.10659983	     10.75044174	    -17.85885252	      7.09445123	     -3.28292121	     -1.29713238	     -1.90394156	     -8.54906300
      5.97000000	     -4.77168691	      0.48648555	    302.10320645	     -0.78851596	      0.97023442	      0.59845093	     29.86575868	      3.24384638	     11.85631125	    -18.42978755	     -0.92159693	     19.74891207	    -16.38780263	     -0.36822837	     10.31549057	    -19.29302549	      5.61639188	     -2.43706418	     -1.01152855	     -1.49323821	     -8.47783565
      5.98000000	     -5.02164137	      0.38735188	    302.57580189	     -0.78416750	      0.97136923	      0.60930234	     30.02114554	      3.66818955	     11.67794523	    -19.88808103	     -1.04713297	     18.82136211	    -15.87158179	     -0.81276842	      9.67202317	    -20.97143838	      4.05512033	     -1.64239075	     -0.78514519	     -1.08841763	     -8.39567267
      5.99000000	     -5.24858527	      0.26246872	    303.02465687	     -0.77988675	      0.97275044	      0.61993658	     30.08319224	      4.06146501	     11.36003096	    -21.23173753	     -1.00004604	     17.81893290	    -15.20996711	     -1.24959597	      8.83471290	    -22.89181842	      2.44945489	     -0.88468375	     -0.61475135	     -0.69637243	     -8.33247286
      6.00000000	     -5.44773402	      0.11550420	    303.47626439	     -0.77566556	      0.97435684	      0.63031760	     30.01419244	      4.40838901	     10.94310421	    -22.38548836	     -0.81791604	     16.75358295	    -14.39328195	     -1.69433882	      7.82954880	    -25.06218121	      0.85191681	     -0.20011674	     -0.49661207	     -0.32605876	     -8.28100177
      6.01000000	     -5.63261583	     -0.04024459	    303.94785683	     -0.77158378	      0.97611347	      0.64046688	     29.82952688	      4.72358610	     10.47513811	    -23.33701254	     -0.55992399	     15.64999716	    -13.40362232	     -2.18096044	      6.67191573	    -27.47706276	     -0.65801221	      0.34224087	     -0.40688482	      0.01294797	     -8.28117290
      6.02000000	     -5.81043574	     -0.18547958	    304.45526516	     -0.76765385	      0.97793690	      0.65036466	     29.56262256	      5.00029320	      9.94833040	    -24.09894673	     -0.25825311	     14.56492205	    -12.22644962	     -2.72540349	      5.39914659	    -30.11953959	     -2.00317573	      0.66509118	     -0.32084121	      0.31202669	     -8.30548118
      6.03000000	     -5.98659779	     -0.31873410	    305.01313888	     -0.76389545	      0.97977744	      0.66000098	     29.22727612	      5.24307546	      9.37548178	    -24.67931786	      0.05777471	     13.54813461	    -10.87666855	     -3.34507502	      4.07331489	    -32.94734614	     -3.12063324	      0.73895580	     -0.23413607	      0.56979918	     -8.35034445
      6.04000000	     -6.14682777	     -0.43193885	    305.63546385	     -0.76030589	      0.98160059	      0.66936360	     28.83877413	      5.44595730	      8.82570630	    -25.11539347	      0.41167226	     12.53734500	     -9.38846123	     -4.01897020	      2.79137462	    -35.88536815	     -4.01349367	      0.55128057	     -0.15081949	      0.76910022	     -8.43716257
      6.05000000	     -6.30069055	     -0.52817372	    306.31894661	     -0.75686970	      0.98336917	      0.67842321	     28.42589222	      5.61412533	      8.25959059	    -25.43903862	      0.76831176	     11.65509991	     -7.78800746	     -4.74456222	      1.59071226	    -38.86582740	     -4.59662221	      0.13402254	     -0.07011817	      0.92268300	     -8.52288252
      6.06000000	     -6.43942631	     -0.61224862	    307.06079880	     -0.75355115	      0.98507865	      0.68715839	     27.99965170	      5.74830242	      7.70191151	    -25.68988795	      1.13082278	     10.87447282	     -6.12028848	     -5.49230948	      0.52081059	    -41.80318780	     -4.85669571	     -0.49673508	     -0.00599549	      1.03427714	     -8.59804959
      6.07000000	     -6.56470214	     -0.69364178	    307.85336676	     -0.75030069	      0.98674126	      0.69554807	     27.56747589	      5.85212684	      7.13621998	    -25.89038614	      1.47793141	     10.23992107	     -4.42500931	     -6.24487547	     -0.40682270	    -44.61949482	     -4.75883108	     -1.27172637	      0.03227350	      1.12138608	     -8.64200756
      6.08000000	     -6.65494356	     -0.76806791	    308.67516899	     -0.74706788	      0.98838754	      0.70362787	     27.10546771	      5.92042486	      6.62663714	    -26.03117854	      1.86454523	      9.64865457	     -2.75348662	     -6.95388880	     -1.20661441	    -47.22923668	     -4.34804925	     -2.28372207	      0.04201580	      1.17198460	     -8.66060040
      6.09000000	     -6.71724855	     -0.85790225	    309.50596710	     -0.74381494	      0.99003704	      0.71137973	     26.62193553	      5.96808505	      6.11658975	    -26.14744858	      2.22217468	      9.17842109	     -1.14625924	     -7.61351485	     -1.89106822	    -49.58644933	     -3.62522877	     -3.39287432	      0.00570163	      1.21794291	     -8.59932654
      6.10000000	     -6.73859084	     -0.95391948	    310.32567805	     -0.74048548	      0.99172736	      0.71883565	     26.09931765	      5.98558411	      5.63190002	    -26.22156854	      2.55681143	      8.78240802	      0.36355111	     -8.18926427	     -2.49883014	    -51.63591241	     -2.68610905	     -4.58166993	     -0.06808173	      1.25210747	     -8.46198392
      6.11000000	     -6.71201826	     -1.05739069	    311.11726126	     -0.73706400	      0.99347854	      0.72603264	     25.52586905	      5.97345415	      5.17096403	    -26.24971965	      2.87690407	      8.44884243	      1.74606239	     -8.66172609	     -3.05241744	    -53.34842649	     -1.60987087	     -5.75736503	     -0.17522893	      1.27008522	     -8.24117747
      6.12000000	     -6.65238111	     -1.17308535	    311.88547993	     -0.73353952	      0.99528815	      0.73297102	     24.90365582	      5.94031216	      4.69960160	    -26.22447780	      3.16445445	      8.19044503	      3.00215384	     -9.04267551	     -3.56372236	    -54.71993559	     -0.46959379	     -6.75579315	     -0.30216357	      1.29140270	     -7.96439570
